<mxfile host="Electron" agent="Mozilla/5.0 (Macintosh; Intel Mac OS X 10_15_7) AppleWebKit/537.36 (KHTML, like Gecko) draw.io/28.2.5 Chrome/138.0.7204.251 Electron/37.6.1 Safari/537.36" version="28.2.5">
  <diagram name="Page-1" id="i-dgICHiG7RkHTywgXq0">
    <mxGraphModel dx="445" dy="318" grid="1" gridSize="10" guides="1" tooltips="1" connect="1" arrows="1" fold="1" page="1" pageScale="1" pageWidth="850" pageHeight="1100" math="0" shadow="0">
      <root>
        <mxCell id="0" />
        <mxCell id="1" parent="0" />
        <mxCell id="NloO71O-_UiFP4VRWAcp-5" value="Clock&#39;" style="rounded=0;whiteSpace=wrap;html=1;" vertex="1" parent="1">
          <mxGeometry x="400" y="460" width="120" height="60" as="geometry" />
        </mxCell>
        <mxCell id="NloO71O-_UiFP4VRWAcp-6" value="f" style="ellipse;whiteSpace=wrap;html=1;" vertex="1" parent="1">
          <mxGeometry x="570" y="450" width="120" height="80" as="geometry" />
        </mxCell>
        <mxCell id="NloO71O-_UiFP4VRWAcp-8" style="edgeStyle=orthogonalEdgeStyle;rounded=0;orthogonalLoop=1;jettySize=auto;html=1;exitX=1;exitY=0.25;exitDx=0;exitDy=0;endArrow=none;endFill=0;entryX=0.046;entryY=0.314;entryDx=0;entryDy=0;entryPerimeter=0;" edge="1" parent="1" source="NloO71O-_UiFP4VRWAcp-5" target="NloO71O-_UiFP4VRWAcp-6">
          <mxGeometry relative="1" as="geometry">
            <mxPoint x="560" y="475" as="targetPoint" />
          </mxGeometry>
        </mxCell>
        <mxCell id="NloO71O-_UiFP4VRWAcp-11" value="Hour" style="edgeLabel;html=1;align=center;verticalAlign=bottom;resizable=0;points=[];labelPosition=center;verticalLabelPosition=top;" vertex="1" connectable="0" parent="NloO71O-_UiFP4VRWAcp-8">
          <mxGeometry x="-0.0828" y="-1" relative="1" as="geometry">
            <mxPoint as="offset" />
          </mxGeometry>
        </mxCell>
        <mxCell id="NloO71O-_UiFP4VRWAcp-9" value="" style="endArrow=none;html=1;rounded=0;exitX=1;exitY=0.75;exitDx=0;exitDy=0;entryX=0.026;entryY=0.685;entryDx=0;entryDy=0;entryPerimeter=0;" edge="1" parent="1" source="NloO71O-_UiFP4VRWAcp-5" target="NloO71O-_UiFP4VRWAcp-6">
          <mxGeometry width="50" height="50" relative="1" as="geometry">
            <mxPoint x="560" y="530" as="sourcePoint" />
            <mxPoint x="610" y="480" as="targetPoint" />
          </mxGeometry>
        </mxCell>
        <mxCell id="NloO71O-_UiFP4VRWAcp-12" value="a.m./p.m." style="edgeLabel;html=1;align=center;verticalAlign=top;resizable=0;points=[];fontSize=10;labelPosition=center;verticalLabelPosition=bottom;" vertex="1" connectable="0" parent="NloO71O-_UiFP4VRWAcp-9">
          <mxGeometry x="-0.0525" y="-1" relative="1" as="geometry">
            <mxPoint x="5" as="offset" />
          </mxGeometry>
        </mxCell>
        <mxCell id="NloO71O-_UiFP4VRWAcp-10" value="" style="endArrow=none;html=1;rounded=0;exitX=1;exitY=0.5;exitDx=0;exitDy=0;" edge="1" parent="1" source="NloO71O-_UiFP4VRWAcp-6">
          <mxGeometry width="50" height="50" relative="1" as="geometry">
            <mxPoint x="560" y="530" as="sourcePoint" />
            <mxPoint x="740" y="490" as="targetPoint" />
          </mxGeometry>
        </mxCell>
        <mxCell id="NloO71O-_UiFP4VRWAcp-13" value="Hour24" style="edgeLabel;html=1;align=center;verticalAlign=bottom;resizable=0;points=[];labelPosition=center;verticalLabelPosition=top;" vertex="1" connectable="0" parent="NloO71O-_UiFP4VRWAcp-10">
          <mxGeometry x="0.1533" relative="1" as="geometry">
            <mxPoint as="offset" />
          </mxGeometry>
        </mxCell>
      </root>
    </mxGraphModel>
  </diagram>
</mxfile>
